<svg width="595" height="888" viewBox="0 0 595 888" fill="none" xmlns="http://www.w3.org/2000/svg">
<path d="M132.076 538.331H199.454" stroke="#19141E" stroke-width="5" stroke-linecap="round"/>
<path d="M337.749 448.057C350.559 448.057 361.042 458.354 361.042 470.941" stroke="white" stroke-width="5" stroke-linecap="round"/>
<path d="M437.608 538.331H354.735" stroke="#19141E" stroke-width="5" stroke-linecap="round"/>
<path fill-rule="evenodd" clip-rule="evenodd" d="M135.179 660.56C122.945 661.417 113.289 671.44 113.289 683.678V694.096H427.886V683.678C427.886 671.44 418.233 661.417 405.997 660.56V656.433C405.997 642.328 395.507 630.513 381.812 628.145V458.017C381.812 442.143 368.591 429.156 352.435 429.156H188.74C172.582 429.156 159.363 442.143 159.363 458.017V628.145C145.669 630.513 135.179 642.328 135.179 656.433V660.56ZM85.2408 538.331C85.2408 553.817 98.0174 566.371 113.78 566.371C129.542 566.371 142.321 553.817 142.321 538.331C142.321 522.846 129.542 510.294 113.78 510.294C98.0174 510.294 85.2408 522.846 85.2408 538.331ZM436.766 510.294C452.528 510.294 465.307 522.846 465.307 538.331C465.307 553.817 452.528 566.371 436.766 566.371C421.004 566.371 408.225 553.817 408.225 538.331C408.225 522.846 421.004 510.294 436.766 510.294Z" fill="#6CA1FF"/>
<path opacity="0.395926" fill-rule="evenodd" clip-rule="evenodd" d="M405.997 660.56V653.402C404.715 640.422 392.842 627.714 376.763 627.714H164.413C148.334 627.714 136.959 639.445 135.179 652.466V660.56C122.945 661.417 113.289 671.44 113.289 683.678V694.096H427.886V683.678C427.886 671.44 418.233 661.417 405.997 660.56V660.56ZM85.2408 538.331C85.2408 553.817 98.0174 566.371 113.78 566.371C129.542 566.371 142.321 553.817 142.321 538.331C142.321 522.846 129.542 510.294 113.78 510.294C98.0174 510.294 85.2408 522.846 85.2408 538.331ZM465.307 538.331C465.307 522.846 452.528 510.294 436.766 510.294C421.004 510.294 408.225 522.846 408.225 538.331C408.225 553.817 421.004 566.371 436.766 566.371C452.528 566.371 465.307 553.817 465.307 538.331Z" fill="black"/>
<path d="M404.133 661.249H135.841" stroke="#19141E" stroke-width="5"/>
<path d="M336.021 584.058H159.364" stroke="#19141E" stroke-width="7"/>
<path fill-rule="evenodd" clip-rule="evenodd" d="M289.85 501.556C302.302 511.625 304.087 529.705 293.838 541.937C283.589 554.17 265.186 555.923 252.735 545.855C240.283 535.786 238.498 517.707 248.747 505.474C258.996 493.241 277.399 491.488 289.85 501.556" fill="white"/>
<path fill-rule="evenodd" clip-rule="evenodd" d="M274.247 513.838C279.966 518.464 280.787 526.768 276.078 532.389C271.369 538.008 262.917 538.814 257.197 534.188C251.476 529.562 250.655 521.258 255.364 515.637C260.072 510.018 268.527 509.212 274.247 513.838" fill="#19141E"/>
<path fill-rule="evenodd" clip-rule="evenodd" d="M213.039 501.556C225.49 511.625 227.275 529.705 217.026 541.937C206.777 554.17 188.374 555.923 175.923 545.855C163.471 535.786 161.687 517.707 171.935 505.474C182.184 493.241 200.587 491.488 213.039 501.556" fill="white"/>
<path fill-rule="evenodd" clip-rule="evenodd" d="M197.435 513.838C203.155 518.464 203.975 526.768 199.267 532.389C194.558 538.008 186.105 538.814 180.386 534.188C174.664 529.562 173.844 521.258 178.552 515.637C183.261 510.018 191.716 509.212 197.435 513.838" fill="#19141E"/>
<path fill-rule="evenodd" clip-rule="evenodd" d="M353.749 89.0757C353.749 103.412 344.531 115.033 333.16 115.033C321.791 115.033 312.573 103.412 312.573 89.0757C312.573 74.7396 321.791 63.1185 333.16 63.1185C344.531 63.1185 353.749 74.7396 353.749 89.0757" fill="#19141E"/>
<path d="M305.028 191.906L304.167 162.092C304.167 162.092 340.314 164.977 348.047 160.951C348.047 160.951 357.498 112.149 346.226 85.1241L345.998 84.0717L269.716 75.1291L265.44 119C262.87 111.404 241.664 102.791 236.12 113.668C224.107 137.238 267.061 153.109 267.061 153.109L262.699 192.263" fill="#BF9177"/>
<path opacity="0.398926" fill-rule="evenodd" clip-rule="evenodd" d="M304.167 162.092L279.792 156.854L304.05 173.277L304.167 162.092Z" fill="black"/>
<path fill-rule="evenodd" clip-rule="evenodd" d="M323.652 118.443L332.074 139.081L321.98 139.21L323.652 118.443Z" fill="#405FD3"/>
<path fill-rule="evenodd" clip-rule="evenodd" d="M314.67 119.237C315.172 122.016 313.33 124.677 310.557 125.179C307.784 125.682 305.129 123.836 304.628 121.057C304.126 118.278 305.967 115.618 308.741 115.115C311.514 114.613 314.168 116.458 314.67 119.237" fill="#512B09"/>
<path fill-rule="evenodd" clip-rule="evenodd" d="M342.974 119.237C343.476 122.016 341.634 124.677 338.861 125.179C336.088 125.682 333.433 123.836 332.932 121.057C332.43 118.278 334.271 115.618 337.045 115.115C339.818 114.613 342.472 116.458 342.974 119.237" fill="#512B09"/>
<path d="M271.104 126.488C263.872 114.082 253.408 110.298 248.71 109.189C246.837 103.762 245.409 97.4685 244.406 90.7749C241.715 72.8606 254.711 56.5161 265.208 51.8228C275.834 47.0732 294.156 40.4913 320.975 49.4257C339.005 55.4365 350.53 41.046 361.14 47.1921C379.27 57.6974 362.407 103.69 316.435 92.0062C283.551 83.6482 282.706 85.7448 282.424 91.82C281.512 111.457 278.457 123.01 271.104 126.488V126.488Z" fill="#2F2F3D"/>
<path fill-rule="evenodd" clip-rule="evenodd" d="M309.629 139.977C309.629 139.977 312.87 145.879 319.875 145.739Z" fill="white"/>
<path d="M309.629 139.977C309.629 139.977 312.87 145.879 319.875 145.739" stroke="#252535" stroke-width="4"/>
<path fill-rule="evenodd" clip-rule="evenodd" d="M321.206 119.484C321.206 125.945 315.979 131.182 309.532 131.182C303.085 131.182 297.858 125.945 297.858 119.484C297.858 113.023 303.085 107.785 309.532 107.785C315.979 107.785 321.206 113.023 321.206 119.484Z" stroke="#252535" stroke-width="4"/>
<path fill-rule="evenodd" clip-rule="evenodd" d="M350.6 119.484C350.6 125.945 345.373 131.182 338.927 131.182C332.479 131.182 327.252 125.945 327.252 119.484C327.252 113.023 332.479 107.785 338.927 107.785C345.373 107.785 350.6 113.023 350.6 119.484Z" stroke="#252535" stroke-width="4"/>
<path d="M326.301 120.026H321.254" stroke="#252535" stroke-width="4"/>
<path d="M297.858 119.484H269.021" stroke="#252535" stroke-width="4"/>
<path d="M376.374 273.215L357.104 283.505L352.334 364.215H219.345L217.114 282.785L175.064 251.155C175.064 251.155 194.895 211.155 228.824 195.235C237.664 191.095 248.784 188.895 259.895 187.845C282.174 185.735 304.383 188.185 307.993 188.625L308.504 188.685C309.134 188.875 309.765 189.065 310.374 189.255C310.384 189.255 310.395 189.265 310.404 189.265C312.204 189.825 313.904 190.365 315.524 190.895C338.034 198.305 345.154 204.305 357.765 222.065C369.754 238.945 376.374 273.215 376.374 273.215" fill="#FCBDA4"/>
<path opacity="0.200219" d="M217.114 282.782L227.78 290.043L253.422 260.094" stroke="black" stroke-width="5"/>
<path fill-rule="evenodd" clip-rule="evenodd" d="M322.043 340.645C322.043 340.645 326.243 341.715 326.323 344.355C326.323 345.105 300.733 349.945 300.733 349.945L306.304 350.275L312.094 349.995C312.094 349.995 315.104 350.555 315.273 353.055C315.333 354.045 310.003 355.105 303.804 355.915C294.163 357.185 287.233 356.065 280.453 354.215C279.883 354.055 279.333 353.915 278.804 353.775L284.314 318.345C286.163 320.035 289.663 323.035 304.724 326.795C307.743 327.545 317.883 327.685 317.883 327.685C320.863 328.115 327.123 328.695 327.554 332.205C327.663 333.075 326.573 334.015 326.573 334.015C326.573 334.015 330.503 334.285 330.743 337.845C330.844 339.245 322.043 340.645 322.043 340.645" fill="#18181C"/>
<path fill-rule="evenodd" clip-rule="evenodd" d="M365.659 389.985H272.628L293.491 261.575H386.523L365.659 389.985Z" fill="#18181C"/>
<path fill-rule="evenodd" clip-rule="evenodd" d="M370.659 389.985H277.628L298.491 261.575H391.523L370.659 389.985Z" fill="#5E93D1"/>
<path fill-rule="evenodd" clip-rule="evenodd" d="M259.894 187.845C263.173 193.015 273.503 205.905 295.673 207.215C322.153 208.765 316.144 192.445 315.524 190.895C315.484 190.815 315.463 190.775 315.463 190.775C315.463 190.775 313.493 190.115 310.403 189.265C310.399 189.265 310.394 189.263 310.389 189.26C310.384 189.258 310.378 189.255 310.373 189.255C309.644 189.055 308.844 188.845 307.993 188.625C304.383 188.185 282.173 185.735 259.894 187.845ZM256.367 313.283L262.823 311.075C262.823 311.075 266.963 309.455 273.953 308.165C276.538 307.689 278.702 307.603 280.969 307.514H280.969H280.969C282.555 307.451 284.19 307.387 286.054 307.185L284.514 317.075C284.224 317.285 283.963 317.535 283.713 317.805C283.855 317.924 283.996 318.054 284.15 318.195C284.203 318.244 284.258 318.294 284.314 318.345C286.163 320.035 289.663 323.035 304.724 326.795C307.743 327.545 317.883 327.685 317.883 327.685C318.104 327.717 318.342 327.75 318.595 327.784L318.597 327.785C321.761 328.217 327.155 328.956 327.554 332.205C327.663 333.075 326.573 334.015 326.573 334.015C326.573 334.015 330.503 334.285 330.743 337.845C330.844 339.245 322.043 340.645 322.043 340.645C322.043 340.645 326.243 341.715 326.323 344.355C326.323 345.105 300.733 349.945 300.733 349.945L306.304 350.275L312.094 349.995C312.094 349.995 315.104 350.555 315.273 353.055C315.333 354.045 310.003 355.105 303.804 355.915C294.163 357.185 287.233 356.065 280.453 354.215C280.038 354.099 279.633 353.993 279.24 353.89L279.227 353.886C279.084 353.849 278.944 353.812 278.804 353.775C277.8 353.512 276.876 353.28 276.003 353.06C270.807 351.753 267.422 350.902 259.733 346.715C258.902 346.262 257.989 345.716 257.042 345.116C233.995 347.304 164.141 352.684 157.139 338.293C143.294 309.831 179.733 254.751 179.733 254.751L220.068 282.959L207.25 304.733L256.367 313.283ZM349 385.575H370.42L375.225 356L385.074 398.078C391.153 405.052 398.171 413.284 399.232 415.311C401.155 418.985 404.714 437.177 404.544 440.771C404.374 444.365 393.289 460.515 393.289 460.515C386.411 458.876 390.903 450.536 390.903 450.536C390.903 450.536 384.743 455.602 382.181 455.517C358.059 454.717 359.352 442.84 359.923 441.354C361.204 438.013 367.642 441.833 367.642 441.833C367.642 441.833 356.46 419.771 357.91 402.912C355.405 398.181 352.324 392.243 349 385.575Z" fill="#BF9177"/>
<path opacity="0.199382" d="M372.807 413.649C372.807 413.649 376.192 426.082 387.808 429.957C391.87 431.312 390.855 447.304 400.811 445.391" stroke="black" stroke-width="3"/>
<path fill-rule="evenodd" clip-rule="evenodd" d="M307.178 271.934C306.762 274.06 305.529 275.609 304.424 275.392C303.32 275.176 302.761 273.277 303.177 271.151C303.593 269.025 304.826 267.476 305.931 267.693C307.036 267.909 307.594 269.808 307.178 271.934" fill="#020101"/>
<path fill-rule="evenodd" clip-rule="evenodd" d="M520.437 658.937L520.722 632.549L488.991 615.411L484.384 690.845H594.325C575.619 668.255 520.437 658.937 520.437 658.937ZM344.38 657.892L344.683 626.506L310.414 624.763L307.296 656.157L299.327 690.595H379.012C368.994 661.338 344.38 657.892 344.38 657.892Z" fill="#0D0B6D"/>
<path fill-rule="evenodd" clip-rule="evenodd" d="M344.683 626.506L311.079 615.679L307.296 656.157L344.381 657.892L344.683 626.506ZM520.722 632.549L488.99 622.326L486.432 657.298L520.436 658.936L520.722 632.549Z" fill="#E576C6"/>
<path fill-rule="evenodd" clip-rule="evenodd" d="M307.98 355.001H215V379.78C215 410.572 240.169 435.533 271.217 435.533H298.794H312.208L302.426 643.69H360.228L381.722 435.533H482.126L479.419 643.69H538.209L565.975 430.18C570.948 390.255 539.847 355.001 499.657 355.001H341.186H307.98Z" fill="#19141E"/>
<path opacity="0.101632" fill-rule="evenodd" clip-rule="evenodd" d="M215 355.001H341.186C367.254 355.001 387.635 377.303 385.078 403.032L360.228 643.69H302.426L312.208 435.533H271.217C240.169 435.533 215 410.572 215 379.78V355.001Z" fill="white"/>
</svg>
